# xmcd
#
# Track frame offsets: 
#        150
#        22893
#        42740
#        74701
#        104700
#        132600
#        163436
#        171134
#        203699
#        222175
#        228512
#
# Disc length: 3287 seconds
#
# Revision: 0
# Processed by: cddbd v1.4PL0 Copyright (c) Steve Scherf et al.
# Submitted via: ExactAudioCopy v0.95a3
#
DISCID=ae0cd50b
DTITLE=Johnny Guitar Watson - Live In Panama - City October - 1990
DYEAR=1990
DGENRE=
TTITLE0=A Real Mother For Ya
TTITLE1=Strike On Computers
TTITLE2=Superman Lover
TTITLE3=I Wanna Tata You Baby
TTITLE4=Nothing Left To Be Desired
TTITLE5=Ain't That A Bitch
TTITLE6=Party !
TTITLE7=Three Hours Past Midnight
TTITLE8=Gangster Of Love
TTITLE9=Party !
TTITLE10=A Real Mother For Ya
EXTD=
EXTT0=
EXTT1=
EXTT2=
EXTT3=
EXTT4=
EXTT5=
EXTT6=
EXTT7=
EXTT8=
EXTT9=
EXTT10=
PLAYORDER=
